<?xml version="1.0" encoding="UTF-8"?>
<svg id="Layer_1" data-name="Layer 1" xmlns="http://www.w3.org/2000/svg" viewBox="0 0 32.90967 25.89844">
  <defs>
    <style>
      .cls-1 {
        fill: #495b73;
      }
    </style>
  </defs>
  <path class="cls-1" d="M1.03174,10.63281C1.03174,6.12695,3.89551,3.45264,7.55957,3.45264c1.9585,0,3.30615,.84229,4.16943,1.74756l-1.32666,1.53711c-.69482-.67383-1.49512-1.09473-2.75879-1.09473-2.42139,0-4.04297,1.85303-4.04297,4.92773,0,3.09473,1.43213,4.99023,4.19043,4.99023,.7373,0,1.47412-.21094,1.89502-.58984v-2.92676h-2.54785v-2.04199h4.80127v6.08496c-.92676,.92676-2.52686,1.64258-4.40088,1.64258-3.72705,0-6.50684-2.52734-6.50684-7.09668Z"/>
  <path class="cls-1" d="M14.9917,3.70508h2.6748l4.12695,7.58105c.50488,.92578,.96875,2.02148,1.41113,3.11621h.08398c-.14746-1.47461-.31641-3.1582-.31641-4.6748V3.70508h2.33789v13.77148h-2.6748l-4.12695-7.58008c-.50488-.92676-.96875-2.02197-1.41113-3.11719h-.08398c.14746,1.43164,.31641,3.1377,.31641,4.6748v6.02246h-2.33789V3.70508Z"/>
  <path class="cls-1" d="M28.38232,16.06543c0-.96875,.69531-1.68457,1.60059-1.68457s1.60059,.71582,1.60059,1.68457c0,.94824-.69531,1.66406-1.60059,1.66406s-1.60059-.71582-1.60059-1.66406Z"/>
</svg>
